<mxfile host="Electron" modified="2024-04-13T10:30:00.779Z" agent="Mozilla/5.0 (Windows NT 10.0; Win64; x64) AppleWebKit/537.36 (KHTML, like Gecko) draw.io/24.1.0 Chrome/120.0.6099.109 Electron/28.1.0 Safari/537.36" etag="mB5aLWhtorAS_CiigeWR" version="24.1.0" type="device">
  <diagram name="Page-1" id="kKlYb4bNzPZRxlFoBk2Y">
    <mxGraphModel dx="1098" dy="613" grid="1" gridSize="10" guides="1" tooltips="1" connect="1" arrows="1" fold="1" page="1" pageScale="1" pageWidth="1920" pageHeight="1200" math="0" shadow="0">
      <root>
        <mxCell id="0" />
        <mxCell id="1" parent="0" />
        <mxCell id="sbS_blAc5gxs0txVAa3R-6" value="RPA UiPath unattended process" style="points=[[0.25,0,0],[0.5,0,0],[0.75,0,0],[1,0.25,0],[1,0.5,0],[1,0.75,0],[0.75,1,0],[0.5,1,0],[0.25,1,0],[0,0.75,0],[0,0.5,0],[0,0.25,0]];rounded=1;arcSize=10;dashed=1;strokeColor=#000000;fillColor=none;gradientColor=none;dashPattern=8 3 1 3;strokeWidth=2;whiteSpace=wrap;align=center;verticalAlign=top;fontFamily=Helvetica;fontSize=12;fontColor=#002B36;" vertex="1" parent="1">
          <mxGeometry x="100" y="70" width="370" height="400" as="geometry" />
        </mxCell>
        <mxCell id="sbS_blAc5gxs0txVAa3R-1" value="Presentation Layer" style="rounded=0;whiteSpace=wrap;html=1;fillColor=#EEE8D5;fontColor=#002B36;labelPosition=center;verticalLabelPosition=middle;align=left;verticalAlign=top;fillStyle=zigzag-line;strokeColor=#EEE8D5;dashed=1;dashPattern=12 12;" vertex="1" parent="1">
          <mxGeometry x="240" y="110" width="195" height="70" as="geometry" />
        </mxCell>
        <mxCell id="sbS_blAc5gxs0txVAa3R-3" value="Business Layer" style="rounded=0;whiteSpace=wrap;html=1;fillColor=#EEE8D5;fontColor=#002B36;labelPosition=center;verticalLabelPosition=middle;align=left;verticalAlign=top;fillStyle=solid;" vertex="1" parent="1">
          <mxGeometry x="240" y="190" width="195" height="70" as="geometry" />
        </mxCell>
        <mxCell id="sbS_blAc5gxs0txVAa3R-4" value="Persistence Layer" style="rounded=0;whiteSpace=wrap;html=1;fillColor=#EEE8D5;fontColor=#002B36;labelPosition=center;verticalLabelPosition=middle;align=left;verticalAlign=top;fillStyle=solid;" vertex="1" parent="1">
          <mxGeometry x="240" y="270" width="195" height="70" as="geometry" />
        </mxCell>
        <mxCell id="sbS_blAc5gxs0txVAa3R-5" value="Database Layer" style="rounded=0;whiteSpace=wrap;html=1;fillColor=#EEE8D5;fontColor=#002B36;labelPosition=center;verticalLabelPosition=middle;align=left;verticalAlign=top;fillStyle=zigzag-line;strokeColor=#EEE8D5;dashed=1;dashPattern=12 12;fontFamily=Helvetica;fontSize=12;" vertex="1" parent="1">
          <mxGeometry x="240" y="350" width="195" height="70" as="geometry" />
        </mxCell>
        <mxCell id="sbS_blAc5gxs0txVAa3R-7" value="Any Generic Automated System" style="points=[[0.25,0,0],[0.5,0,0],[0.75,0,0],[1,0.25,0],[1,0.5,0],[1,0.75,0],[0.75,1,0],[0.5,1,0],[0.25,1,0],[0,0.75,0],[0,0.5,0],[0,0.25,0]];rounded=1;arcSize=10;dashed=1;strokeColor=#000000;fillColor=none;gradientColor=none;dashPattern=8 3 1 3;strokeWidth=2;whiteSpace=wrap;align=center;verticalAlign=top;fontFamily=Helvetica;fontSize=12;fontColor=#002B36;" vertex="1" parent="1">
          <mxGeometry x="590" y="70" width="370" height="400" as="geometry" />
        </mxCell>
        <mxCell id="sbS_blAc5gxs0txVAa3R-8" value="Presentation Layer" style="rounded=0;whiteSpace=wrap;html=1;fillColor=#EEE8D5;fontColor=#002B36;labelPosition=center;verticalLabelPosition=middle;align=left;verticalAlign=top;fillStyle=solid;" vertex="1" parent="1">
          <mxGeometry x="625" y="110" width="300" height="70" as="geometry" />
        </mxCell>
        <mxCell id="sbS_blAc5gxs0txVAa3R-9" value="Business Layer" style="rounded=0;whiteSpace=wrap;html=1;fillColor=#EEE8D5;fontColor=#002B36;labelPosition=center;verticalLabelPosition=middle;align=left;verticalAlign=top;fillStyle=solid;" vertex="1" parent="1">
          <mxGeometry x="625" y="190" width="300" height="70" as="geometry" />
        </mxCell>
        <mxCell id="sbS_blAc5gxs0txVAa3R-10" value="Persistence Layer" style="rounded=0;whiteSpace=wrap;html=1;fillColor=#EEE8D5;fontColor=#002B36;labelPosition=center;verticalLabelPosition=middle;align=left;verticalAlign=top;fillStyle=solid;" vertex="1" parent="1">
          <mxGeometry x="625" y="270" width="300" height="70" as="geometry" />
        </mxCell>
        <mxCell id="sbS_blAc5gxs0txVAa3R-11" value="Database Layer" style="rounded=0;whiteSpace=wrap;html=1;fillColor=#EEE8D5;fontColor=#002B36;labelPosition=center;verticalLabelPosition=middle;align=left;verticalAlign=top;fillStyle=solid;" vertex="1" parent="1">
          <mxGeometry x="625" y="350" width="300" height="70" as="geometry" />
        </mxCell>
        <mxCell id="sbS_blAc5gxs0txVAa3R-15" value="UiPath RPA Platform" style="rounded=0;whiteSpace=wrap;html=1;strokeColor=default;align=center;verticalAlign=middle;fontFamily=Helvetica;fontSize=12;fontColor=#002B36;fillColor=#EEE8D5;rotation=-90;" vertex="1" parent="1">
          <mxGeometry x="92.5" y="232.5" width="155" height="60" as="geometry" />
        </mxCell>
      </root>
    </mxGraphModel>
  </diagram>
</mxfile>
